<?xml version="1.0" encoding="UTF-8"?>
<svg id="Layer_2" data-name="Layer 2" xmlns="http://www.w3.org/2000/svg" viewBox="0 0 49.39 47.57">
  <defs>
    <style>
      .cls-1 {
        fill: #231f20;
        stroke-width: 0px;
      }
    </style>
  </defs>
  <g id="Layer_1-2" data-name="Layer 1">
    <g>
      <g>
        <path class="cls-1" d="m44.04,19.26c-2.29-1.15-4.49-2.41-6.72-3.63-2.22-1.24-4.39-2.55-6.58-3.83-2.19-1.28-4.31-2.66-6.46-3.99-2.16-1.32-4.27-2.71-6.37-4.12l4.26.3-4.78,2.84c-1.6.94-3.22,1.83-4.83,2.75-1.61.91-3.25,1.78-4.88,2.67-1.62.9-3.27,1.74-4.91,2.6l2.36-3.79c-.06,1.8-.16,3.6-.27,5.41l-2.05-3.86c3.01,1.94,5.92,4.06,8.88,6.08,1.49,1.01,2.94,2.06,4.38,3.14l4.34,3.2c1.44,1.08,2.84,2.21,4.27,3.32l2.13,1.67,2.09,1.73c1.39,1.15,2.79,2.31,4.14,3.52,1.37,1.19,2.72,2.42,4.03,3.69l.04.03c.1.1.1.25,0,.35-.08.08-.21.1-.31.04l-9.17-5.63-9.14-5.67L.22,16.72c-.15-.09-.22-.25-.22-.41l.16-5.41c0-.18.11-.33.26-.41l9.81-5.23L20.06.05c.15-.08.34-.06.47.03,8.14,5.98,16.32,11.9,24.42,17.94.34.25.41.73.16,1.07-.22.3-.63.39-.96.23l-.1-.05Z"/>
        <polygon class="cls-1" points="41.7 5.55 43.57 17.39 31.73 19.26 37.55 23.49 49.39 21.62 47.52 9.78 41.7 5.55"/>
      </g>
      <g>
        <path class="cls-1" d="m6.82,30.32c1.94,1,3.8,2.12,5.7,3.18,1.87,1.1,3.71,2.24,5.56,3.36,1.85,1.12,3.63,2.34,5.45,3.5l2.71,1.77,2.65,1.84-4.32-.36,4.78-2.85c1.59-.96,3.22-1.84,4.83-2.76,1.61-.92,3.25-1.78,4.87-2.68,1.62-.9,3.27-1.74,4.91-2.61l-2.36,3.8c.06-1.8.16-3.6.27-5.41l2.06,3.87c-2.99-1.91-5.86-3.99-8.8-5.99l-2.19-1.51-2.15-1.58-4.3-3.16c-1.43-1.06-2.82-2.19-4.22-3.27l-2.11-1.65-2.07-1.71c-1.38-1.14-2.76-2.28-4.1-3.48-1.36-1.18-2.69-2.39-3.99-3.65l-.04-.04c-.1-.1-.1-.25,0-.35.08-.08.21-.1.31-.04l9.08,5.54,9.05,5.58,18.09,11.19c.15.09.23.25.22.42l-.16,5.41c0,.18-.11.33-.26.41-6.53,3.51-13.09,6.95-19.64,10.43-.16.08-.34.06-.47-.04-6.79-5.28-13.63-10.51-20.38-15.85-.35-.28-.42-.8-.13-1.15.25-.31.68-.4,1.02-.22l.12.06Z"/>
        <polygon class="cls-1" points="8.72 44.18 7.17 32.29 19.06 30.74 13.36 26.35 1.47 27.9 3.02 39.79 8.72 44.18"/>
      </g>
    </g>
  </g>
</svg>