<?xml version="1.0" encoding="UTF-8"?>
<svg id="Layer_2" data-name="Layer 2" xmlns="http://www.w3.org/2000/svg" viewBox="0 0 95.05 92.23">
  <defs>
    <style>
      .cls-1 {
        font-family: KozGoPr6N-Regular-83pv-RKSJ-H, 'Kozuka Gothic Pr6N';
        font-size: 36px;
        stroke-miterlimit: 10;
        stroke-width: 2px;
      }

      .cls-2 {
        stroke: #fff;
      }

      .cls-3 {
        stroke: #000;
      }

      .cls-4 {
        fill: #232020;
        stroke-width: 0px;
      }
    </style>
  </defs>
  <g id="_レイヤー_1" data-name="レイヤー 1">
    <g>
      <path class="cls-4" d="m93.74,75.23H1.3c-.72,0-1.3-.62-1.3-1.38V1.38C0,.62.58,0,1.3,0h92.44c.72,0,1.3.62,1.3,1.38v72.48c0,.76-.58,1.38-1.3,1.38Zm-91.14-2.76h89.84V2.76H2.6v69.72Z"/>
      <path class="cls-4" d="m35.62,90.96c-.72,0-1.3-.62-1.3-1.38v-15.73c0-.76.58-1.38,1.3-1.38s1.3.62,1.3,1.38v15.73c0,.76-.58,1.38-1.3,1.38Z"/>
      <path class="cls-4" d="m59.49,90.96c-.72,0-1.3-.62-1.3-1.38v-15.73c0-.76.58-1.38,1.3-1.38s1.3.62,1.3,1.38v15.73c0,.76-.58,1.38-1.3,1.38Z"/>
      <path class="cls-4" d="m92.36,62.6H1.3c-.72,0-1.3-.62-1.3-1.38s.58-1.38,1.3-1.38h91.06c.72,0,1.3.62,1.3,1.38s-.58,1.38-1.3,1.38Z"/>
      <path class="cls-4" d="m70.77,92.23H24.12c-.72,0-1.3-.62-1.3-1.38s.58-1.38,1.3-1.38h46.65c.72,0,1.3.62,1.3,1.38s-.58,1.38-1.3,1.38Z"/>
    </g>
    <text class="cls-1" transform="translate(4.68 45.01) scale(.75 1)"><tspan class="cls-3" x="0" y="0" xml:space="preserve">  </tspan><tspan class="cls-2" x="16.78" y="0">&lt; / &gt;</tspan></text>
  </g>
</svg>