<?xml version="1.0" encoding="UTF-8"?>
<svg id="Layer_2" data-name="Layer 2" xmlns="http://www.w3.org/2000/svg" viewBox="0 0 95 95">
  <defs>
    <style>
      .cls-1, .cls-2 {
        stroke: #000;
        stroke-miterlimit: 10;
      }

      .cls-2 {
        fill: #fff;
      }
    </style>
  </defs>
  <g id="_レイヤー_1" data-name="レイヤー 1">
    <circle class="cls-2" cx="47.5" cy="47.5" r="47"/>
    <path class="cls-1" d="m62,85l-16.55-14.08c-.94-.69-2.16-.87-3.27-.48l-12.19,11.56c-2.74.97-16.87-10.22-16-13l9.82-16.64c.34-1.1.13-2.29-.57-3.2l-13.25-10.15c-1.78-2.33,4.06-19.02,7-19l17.23,6.11c1.18,0,2.29-.58,2.95-1.56l8.82-17.56c1.64-2.43,18.08,2.21,19,5l-2.6,16.47c.36,1.09,1.23,1.94,2.33,2.27l18.28.26c2.78.85,6.35,15.28,4,17l-17.68,8.1c-.94.69-1.48,1.8-1.44,2.97l7.12,15.93c.1,2.95-10.62,11.75-13,10Z"/>
    <polygon class="cls-2" points="58.05 56.77 40.7 57.73 34.43 41.52 47.91 30.55 62.5 39.98 58.05 56.77"/>
  </g>
</svg>