<?xml version="1.0" encoding="UTF-8"?>
<svg id="Layer_2" data-name="Layer 2" xmlns="http://www.w3.org/2000/svg" viewBox="0 0 85.61 86.84">
  <defs>
    <style>
      .cls-1 {
        fill: none;
        stroke: #232020;
        stroke-miterlimit: 10;
        stroke-width: 3px;
      }
    </style>
  </defs>
  <g id="_レイヤー_1" data-name="レイヤー 1">
    <g>
      <path class="cls-1" d="m16.85,30.24h51.91c8.48,0,15.35,6.87,15.35,15.35v26.63c0,6.2-5.03,11.23-11.23,11.23h-4.45c-4.16,0-8.02-2.2-10.13-5.78l-5.41-9.16c-4.18-7.08-14.45-7.02-18.55.11l-6.21,10.81c-2.16,3.77-6.22,6.03-10.56,5.9l-5.16-.16c-6.07-.18-10.89-5.16-10.89-11.23v-28.36c0-8.48,6.87-15.35,15.35-15.35Z"/>
      <circle class="cls-1" cx="20.75" cy="48.79" r="6.65"/>
      <line class="cls-1" x1="63.81" y1="40.74" x2="63.81" y2="59.64"/>
      <line class="cls-1" x1="73.26" y1="50.54" x2="54.36" y2="50.54"/>
      <path class="cls-1" d="m41.41,29.54s-3.5-16.8,11.9-16.1c15.4.7,19.6-5.6,20.3-13.3"/>
    </g>
  </g>
</svg>