<?xml version="1.0" encoding="UTF-8"?>
<svg id="Layer_2" data-name="Layer 2" xmlns="http://www.w3.org/2000/svg" viewBox="0 0 82.68 79.12">
  <defs>
    <style>
      .cls-1 {
        fill: none;
        stroke: #f50000;
        stroke-miterlimit: 10;
        stroke-width: 6px;
      }

      .cls-2 {
        fill: #232020;
      }
    </style>
  </defs>
  <g id="_レイヤー_1" data-name="レイヤー 1">
    <g>
      <path class="cls-2" d="m81.55,64.54H1.13c-.63,0-1.13-.53-1.13-1.18V1.18C0,.53.51,0,1.13,0h80.42c.63,0,1.13.53,1.13,1.18v62.18c0,.65-.51,1.18-1.13,1.18ZM2.26,62.18h78.15V2.36H2.26v59.81Z"/>
      <path class="cls-2" d="m30.98,78.04c-.63,0-1.13-.53-1.13-1.18v-13.5c0-.65.51-1.18,1.13-1.18s1.13.53,1.13,1.18v13.5c0,.65-.51,1.18-1.13,1.18Z"/>
      <path class="cls-2" d="m51.75,78.04c-.63,0-1.13-.53-1.13-1.18v-13.5c0-.65.51-1.18,1.13-1.18s1.13.53,1.13,1.18v13.5c0,.65-.51,1.18-1.13,1.18Z"/>
      <path class="cls-2" d="m80.35,53.7H1.13c-.63,0-1.13-.53-1.13-1.18s.51-1.18,1.13-1.18h79.22c.63,0,1.13.53,1.13,1.18s-.51,1.18-1.13,1.18Z"/>
      <path class="cls-2" d="m61.57,79.12H20.98c-.63,0-1.13-.53-1.13-1.18s.51-1.18,1.13-1.18h40.59c.63,0,1.13.53,1.13,1.18s-.51,1.18-1.13,1.18Z"/>
      <g>
        <line class="cls-1" x1="29.68" y1="8.12" x2="29.68" y2="47.29"/>
        <line class="cls-1" x1="29.68" y1="9.79" x2="53.02" y2="46.45"/>
        <line class="cls-1" x1="53.02" y1="8.12" x2="53.02" y2="48.12"/>
      </g>
    </g>
  </g>
</svg>