<?xml version="1.0" encoding="UTF-8"?>
<svg id="Layer_2" data-name="Layer 2" xmlns="http://www.w3.org/2000/svg" viewBox="0 0 82.4 80">
  <defs>
    <style>
      .cls-1 {
        fill: #232020;
      }

      .cls-1, .cls-2 {
        stroke: #232020;
        stroke-miterlimit: 10;
      }

      .cls-2 {
        fill: #fff;
        stroke-width: 3px;
      }
    </style>
  </defs>
  <g id="_レイヤー_1" data-name="レイヤー 1">
    <g>
      <g>
        <path class="cls-1" d="m32.1,75.6c-1.98,0-3.58-1.77-3.58-3.95s1.61-3.95,3.58-3.95,3.58,1.77,3.58,3.95-1.61,3.95-3.58,3.95Zm0-7.08c-1.57,0-2.84,1.4-2.84,3.13s1.27,3.13,2.84,3.13,2.84-1.4,2.84-3.13-1.27-3.13-2.84-3.13Z"/>
        <path class="cls-1" d="m48.66,72.06c-1.98,0-3.59-1.77-3.59-3.95s1.61-3.95,3.59-3.95,3.58,1.77,3.58,3.95-1.61,3.95-3.58,3.95Zm0-7.08c-1.57,0-2.84,1.4-2.84,3.13s1.27,3.13,2.84,3.13,2.84-1.4,2.84-3.13-1.27-3.13-2.84-3.13Z"/>
        <path class="cls-1" d="m35.31,72.06c-.21,0-.37-.18-.37-.41v-21.78c0-.2.13-.37.3-.4l16.55-3.4c.11-.02.22.01.31.09.09.08.13.19.13.32v21.64c0,.23-.17.41-.37.41s-.37-.18-.37-.41v-21.15l-15.81,3.25v21.43c0,.23-.17.41-.37.41Z"/>
        <path class="cls-1" d="m35.31,54.38c-.18,0-.33-.14-.37-.34-.04-.22.1-.44.3-.48l16.55-3.4c.21-.04.4.11.44.33.04.22-.1.44-.3.48l-16.55,3.4s-.05,0-.07,0Z"/>
      </g>
      <g>
        <g>
          <path class="cls-2" d="m16.79,73.09c0,.07.02.15.02.22,0,.59-.48,1.07-1.08,1.07-.28,0-.56-.01-.84-.03-7.45-.43-13.39-6.63-13.39-14.2,0-5.71,3.38-10.64,8.25-12.9.69-.33,1.41-.6,2.16-.8.93-.27,1.89-.43,2.88-.5.31-.02.62-.03.94-.03.6,0,1.08.48,1.08,1.08s-.48,1.07-1.08,1.07c-.36,0-.72.02-1.07.05-6.16.54-11,5.73-11,12.03s4.84,11.49,11,12.03c.35.03.71.05,1.07.05.52,0,.96.37,1.06.86Z"/>
          <path class="cls-2" d="m16.83,73.09c-.02-.1-.02-.2-.02-.31v-25.63s0-.1,0-.15h0c0-.6-.48-1.08-1.08-1.08-.32,0-.63.01-.94.03-.09.39-.13.79-.13,1.2v25.63c0,.54.08,1.07.23,1.57.28.02.56.03.84.03.6,0,1.08-.48,1.08-1.07,0-.07-.01-.15-.02-.22h.04Zm3.55-31.66c-2.74,0-5.04,1.94-5.59,4.52-.09.39-.13.79-.13,1.2v25.63c0,.54.08,1.07.23,1.57.68,2.39,2.88,4.15,5.49,4.15,3.16,0,5.73-2.57,5.73-5.72v-25.63c0-3.15-2.57-5.72-5.73-5.72Zm3.57,31.35c0,1.97-1.6,3.57-3.57,3.57-1.86,0-3.4-1.43-3.55-3.26-.02-.1-.02-.2-.02-.31v-25.63s0-.1,0-.15c.07-1.89,1.64-3.42,3.56-3.42s3.57,1.61,3.57,3.57v25.63Zm-7.14,0v-25.63s0-.1,0-.15h0c0,.59-.48,1.07-1.08,1.07-.36,0-.72.02-1.07.05v24.06c.35.03.71.05,1.07.05.52,0,.96.37,1.06.86h.04c-.02-.1-.02-.2-.02-.31Z"/>
          <path class="cls-2" d="m23.95,47.15v25.63c0,1.97-1.6,3.57-3.57,3.57-1.86,0-3.4-1.43-3.55-3.26-.02-.1-.02-.2-.02-.31v-25.63s0-.1,0-.15c.07-1.89,1.64-3.42,3.56-3.42s3.57,1.61,3.57,3.57Z"/>
          <path class="cls-2" d="m14.66,48.12v24.06c-6.16-.54-11-5.73-11-12.03s4.84-11.49,11-12.03Z"/>
          <path class="cls-2" d="m80.9,60.15c0,7.57-5.94,13.77-13.39,14.2-.28.02-.56.03-.84.03-.6,0-1.08-.48-1.08-1.07,0-.07.01-.15.02-.22.1-.49.54-.86,1.06-.86.36,0,.72-.02,1.07-.05,6.16-.54,11-5.73,11-12.03s-4.84-11.49-11-12.03c-.35-.03-.71-.05-1.07-.05-.55,0-1-.4-1.07-.92-.01-.05-.01-.1-.01-.15,0-.6.48-1.08,1.08-1.08.32,0,.63.01.94.03.99.07,1.95.23,2.88.5.74.2,1.46.47,2.15.79,4.87,2.26,8.26,7.2,8.26,12.91Z"/>
          <path class="cls-2" d="m67.61,45.95c-.31-.02-.62-.03-.94-.03-.6,0-1.08.48-1.08,1.08,0,.05,0,.1.01.15h-.01v25.63c0,.11,0,.21-.02.31h.04c.1-.49.54-.86,1.06-.86.36,0,.72-.02,1.07-.05v-25.03c0-.41-.04-.81-.13-1.2Zm0,0c-.55-2.58-2.85-4.52-5.59-4.52-3.16,0-5.73,2.57-5.73,5.72v25.63c0,3.15,2.57,5.72,5.73,5.72,2.61,0,4.81-1.76,5.49-4.15.15-.5.23-1.03.23-1.57v-25.63c0-.41-.04-.81-.13-1.2Zm-5.59,30.4c-1.97,0-3.57-1.6-3.57-3.57v-25.63c0-1.96,1.6-3.57,3.57-3.57s3.57,1.61,3.57,3.57v25.63c0,.11,0,.21-.02.31-.15,1.83-1.69,3.26-3.55,3.26Z"/>
          <path class="cls-2" d="m65.59,47.15v25.63c0,.11,0,.21-.02.31-.15,1.83-1.69,3.26-3.55,3.26-1.97,0-3.57-1.6-3.57-3.57v-25.63c0-1.96,1.6-3.57,3.57-3.57s3.57,1.61,3.57,3.57Z"/>
          <path class="cls-2" d="m78.74,60.15c0,6.3-4.84,11.49-11,12.03v-24.06c6.16.54,11,5.73,11,12.03Z"/>
        </g>
        <path class="cls-2" d="m71.57,48.49c-.59,0-1.08-.48-1.08-1.08v-12.72c0-17.12-13.14-31.04-29.29-31.04s-29.29,13.93-29.29,31.04v12.72c0,.59-.48,1.08-1.08,1.08s-1.08-.48-1.08-1.08v-12.72C9.75,16.39,23.86,1.5,41.2,1.5s31.44,14.89,31.44,33.19v12.72c0,.59-.48,1.08-1.08,1.08Z"/>
      </g>
    </g>
  </g>
</svg>